Light Display Wide — UC.ufo
<glyph name="A" format="1">
  <advance width="1379"/>
  <unicode hex="0041"/>
  <outline>
    <contour>
      <point x="828" y="1486" type="move" name="top"/>
    </contour>
    <contour>
      <point x="1172" y="21" type="move" name="ogonek"/>
    </contour>
    <contour>
      <point x="608" y="0" type="move" name="bottom"/>
    </contour>
    <contour>
      <point x="-101" y="36" type="line"/>
      <point x="-107" y="0" type="line"/>
      <point x="347" y="0" type="line"/>
      <point x="351" y="36" type="line"/>
      <point x="159" y="58" type="line"/>
      <point x="761" y="1294" type="line"/>
      <point x="830" y="1434" type="line"/>
      <point x="790" y="1442" type="line"/>
      <point x="811" y="1254" type="line"/>
      <point x="1036" y="66" type="line"/>
      <point x="847" y="36" type="line"/>
      <point x="839" y="0" type="line"/>
      <point x="1347" y="0" type="line"/>
      <point x="1351" y="36" type="line"/>
      <point x="1199" y="61" type="line"/>
      <point x="905" y="1498" type="line"/>
      <point x="781" y="1499" type="line"/>
      <point x="45" y="56" type="line"/>
    </contour>
    <contour>
      <point x="337" y="558" type="line"/>
      <point x="338" y="492" type="line"/>
      <point x="1019" y="492" type="line"/>
      <point x="1018" y="558" type="line"/>
    </contour>
  </outline>
</glyph>
<glyph name="B" format="1">
  <advance width="1291"/>
  <unicode hex="0042"/>
  <outline>
    <contour>
      <point x="715" y="1486" type="move" name="top"/>
    </contour>
    <contour>
      <point x="527" y="0" type="move" name="bottom"/>
    </contour>
    <contour>
      <point x="-31" y="36" type="line"/>
      <point x="-36" y="0" type="line"/>
      <point x="207" y="0" type="line" smooth="yes"/>
      <point x="277" y="0"/>
      <point x="409" y="-14"/>
      <point x="484" y="-14" type="curve"/>
      <point x="909" y="-14"/>
      <point x="1201" y="135"/>
      <point x="1198" y="458" type="curve"/>
      <point x="1196" y="650"/>
      <point x="1047" y="754"/>
      <point x="838" y="768" type="curve"/>
      <point x="1047" y="822"/>
      <point x="1197" y="976"/>
      <point x="1190" y="1190" type="curve"/>
      <point x="1186" y="1357"/>
      <point x="1066" y="1502"/>
      <point x="719" y="1502" type="curve"/>
      <point x="618" y="1502"/>
      <point x="518" y="1488"/>
      <point x="424" y="1486" type="curve"/>
      <point x="171" y="1486" type="line"/>
      <point x="166" y="1450" type="line"/>
      <point x="313" y="1420" type="line"/>
      <point x="126" y="67" type="line"/>
    </contour>
    <contour>
      <point x="516" y="37" type="curve"/>
      <point x="424" y="37"/>
      <point x="273" y="61"/>
      <point x="273" y="71" type="curve"/>
      <point x="281" y="44" type="line"/>
      <point x="379" y="749" type="line"/>
      <point x="334" y="738" type="line"/>
      <point x="437" y="740"/>
      <point x="516" y="738"/>
      <point x="657" y="738" type="curve"/>
      <point x="884" y="738"/>
      <point x="1029" y="652"/>
      <point x="1033" y="457" type="curve"/>
      <point x="1039" y="179"/>
      <point x="846" y="37"/>
    </contour>
    <contour>
      <point x="685" y="794" type="curve"/>
      <point x="555" y="795"/>
      <point x="419" y="792"/>
      <point x="343" y="794" type="curve"/>
      <point x="381" y="763" type="line"/>
      <point x="480" y="1471" type="line"/>
      <point x="451" y="1438" type="line"/>
      <point x="476" y="1439"/>
      <point x="653" y="1451"/>
      <point x="690" y="1451" type="curve"/>
      <point x="954" y="1451"/>
      <point x="1025" y="1325"/>
      <point x="1029" y="1169" type="curve"/>
      <point x="1036" y="932"/>
      <point x="858" y="792"/>
    </contour>
  </outline>
</glyph>
<glyph name="C" format="1">
  <advance width="1324"/>
  <unicode hex="0043"/>
  <outline>
    <contour>
      <point x="876" y="1486" type="move" name="top"/>
    </contour>
    <contour>
      <point x="665" y="0" type="move" name="bottom"/>
    </contour>
    <contour>
      <point x="700" y="-16" type="curve"/>
      <point x="894" y="-16"/>
      <point x="1047" y="45"/>
      <point x="1128" y="73" type="curve"/>
      <point x="1165" y="389" type="line"/>
      <point x="1099" y="389" type="line"/>
      <point x="1078" y="317"/>
      <point x="1065" y="231"/>
      <point x="1043" y="159" type="curve"/>
      <point x="999" y="91"/>
      <point x="825" y="38"/>
      <point x="729" y="38" type="curve"/>
      <point x="377" y="38"/>
      <point x="275" y="319"/>
      <point x="265" y="634" type="curve"/>
      <point x="253" y="1007"/>
      <point x="434" y="1449"/>
      <point x="849" y="1449" type="curve"/>
      <point x="1012" y="1449"/>
      <point x="1087" y="1402"/>
      <point x="1136" y="1374" type="curve"/>
      <point x="1147" y="1090" type="line"/>
      <point x="1209" y="1090" type="line"/>
      <point x="1270" y="1442" type="line"/>
      <point x="1204" y="1452"/>
      <point x="1064" y="1502"/>
      <point x="869" y="1502" type="curve"/>
      <point x="448" y="1502"/>
      <point x="82" y="1156"/>
      <point x="100" y="614" type="curve"/>
      <point x="110" y="309"/>
      <point x="245" y="-16"/>
    </contour>
  </outline>
</glyph>
<glyph name="D" format="1">
  <advance width="1403"/>
  <unicode hex="0044"/>
  <outline>
    <contour>
      <point x="749" y="1484" type="move" name="top"/>
    </contour>
    <contour>
      <point x="561" y="0" type="move" name="bottom"/>
    </contour>
    <contour>
      <point x="-31" y="36" type="line"/>
      <point x="-37" y="0" type="line"/>
      <point x="210" y="0" type="line" smooth="yes"/>
      <point x="392" y="0"/>
      <point x="441" y="-16"/>
      <point x="599" y="-16" type="curve"/>
      <point x="1087" y="-16"/>
      <point x="1373" y="403"/>
      <point x="1368" y="899" type="curve"/>
      <point x="1360" y="1262"/>
      <point x="1182" y="1502"/>
      <point x="747" y="1502" type="curve"/>
      <point x="649" y="1502"/>
      <point x="550" y="1488"/>
      <point x="451" y="1486" type="curve"/>
      <point x="171" y="1486" type="line"/>
      <point x="166" y="1450" type="line"/>
      <point x="314" y="1420" type="line"/>
      <point x="127" y="67" type="line"/>
    </contour>
    <contour>
      <point x="596" y="37" type="curve"/>
      <point x="458" y="37"/>
      <point x="338" y="62"/>
      <point x="246" y="87" type="curve"/>
      <point x="279" y="28" type="line"/>
      <point x="478" y="1456" type="line"/>
      <point x="434" y="1411" type="line"/>
      <point x="496" y="1427"/>
      <point x="621" y="1449"/>
      <point x="713" y="1449" type="curve"/>
      <point x="1059" y="1449"/>
      <point x="1193" y="1254"/>
      <point x="1203" y="883" type="curve"/>
      <point x="1208" y="455"/>
      <point x="978" y="37"/>
    </contour>
  </outline>
</glyph>
<glyph name="E" format="1">
  <advance width="1252"/>
  <unicode hex="0045"/>
  <outline>
    <contour>
      <point x="152" y="1486" type="move" name="topleft"/>
    </contour>
    <contour>
      <point x="756" y="1486" type="move" name="top"/>
    </contour>
    <contour>
      <point x="1012" y="11" type="move" name="ogonek"/>
    </contour>
    <contour>
      <point x="549" y="0" type="move" name="bottom"/>
    </contour>
    <contour>
      <point x="-31" y="36" type="line"/>
      <point x="-36" y="0" type="line"/>
      <point x="1074" y="0" type="line"/>
      <point x="1159" y="308" type="line"/>
      <point x="1096" y="325" type="line"/>
      <point x="982" y="95" type="line"/>
      <point x="285" y="68" type="line"/>
      <point x="378" y="733" type="line"/>
      <point x="886" y="719" type="line"/>
      <point x="898" y="808" type="line"/>
      <point x="387" y="798" type="line"/>
      <point x="472" y="1420" type="line"/>
      <point x="1040" y="1400" type="line"/>
      <point x="1086" y="1184" type="line"/>
      <point x="1137" y="1184" type="line"/>
      <point x="1141" y="1486" type="line"/>
      <point x="171" y="1486" type="line"/>
      <point x="166" y="1450" type="line"/>
      <point x="314" y="1420" type="line"/>
      <point x="127" y="67" type="line"/>
    </contour>
  </outline>
</glyph>
<glyph name="F" format="1">
  <advance width="1068"/>
  <unicode hex="0046"/>
  <outline>
    <contour>
      <point x="612" y="-164" type="move" name="btm"/>
    </contour>
    <contour>
      <point x="756" y="1486" type="move" name="top"/>
    </contour>
    <contour>
      <point x="-31" y="36" type="line"/>
      <point x="-36" y="0" type="line"/>
      <point x="523" y="0" type="line"/>
      <point x="528" y="36" type="line"/>
      <point x="285" y="66" type="line"/>
      <point x="378" y="733" type="line"/>
      <point x="863" y="719" type="line"/>
      <point x="876" y="808" type="line"/>
      <point x="387" y="798" type="line"/>
      <point x="472" y="1419" type="line"/>
      <point x="1014" y="1399" type="line"/>
      <point x="1063" y="1184" type="line"/>
      <point x="1114" y="1184" type="line"/>
      <point x="1118" y="1486" type="line"/>
      <point x="171" y="1486" type="line"/>
      <point x="166" y="1450" type="line"/>
      <point x="314" y="1420" type="line"/>
      <point x="127" y="67" type="line"/>
    </contour>
  </outline>
</glyph>
<glyph name="H" format="1">
  <advance width="1482"/>
  <unicode hex="0048"/>
  <outline>
    <contour>
      <point x="874" y="1486" type="move" name="top"/>
    </contour>
    <contour>
      <point x="668" y="0" type="move" name="bottom"/>
    </contour>
    <contour>
      <point x="-31" y="36" type="line"/>
      <point x="-36" y="0" type="line"/>
      <point x="441" y="0" type="line"/>
      <point x="446" y="36" type="line"/>
      <point x="285" y="67" type="line"/>
      <point x="472" y="1420" type="line"/>
      <point x="618" y="1450" type="line"/>
      <point x="623" y="1486" type="line"/>
      <point x="171" y="1486" type="line"/>
      <point x="166" y="1450" type="line"/>
      <point x="314" y="1420" type="line"/>
      <point x="127" y="67" type="line"/>
    </contour>
    <contour>
      <point x="896" y="36" type="line"/>
      <point x="891" y="0" type="line"/>
      <point x="1369" y="0" type="line"/>
      <point x="1374" y="36" type="line"/>
      <point x="1212" y="67" type="line"/>
      <point x="1399" y="1420" type="line"/>
      <point x="1546" y="1450" type="line"/>
      <point x="1551" y="1486" type="line"/>
      <point x="1098" y="1486" type="line"/>
      <point x="1093" y="1450" type="line"/>
      <point x="1241" y="1420" type="line"/>
      <point x="1054" y="67" type="line"/>
    </contour>
    <contour>
      <point x="341" y="798" type="line"/>
      <point x="341" y="732" type="line"/>
      <point x="1219" y="732" type="line"/>
      <point x="1218" y="798" type="line"/>
    </contour>
  </outline>
</glyph>
<glyph name="I" format="1">
  <advance width="590"/>
  <unicode hex="0049"/>
  <outline>
    <contour>
      <point x="427" y="-164" type="move" name="btm"/>
    </contour>
    <contour>
      <point x="174" y="1486" type="move" name="topleft"/>
    </contour>
    <contour>
      <point x="429" y="1486" type="move" name="top"/>
    </contour>
    <contour>
      <point x="386" y="0" type="move" name="ogonek"/>
    </contour>
    <contour>
      <point x="230" y="0" type="move" name="bottom"/>
    </contour>
    <contour>
      <point x="-13" y="36" type="line"/>
      <point x="-18" y="0" type="line"/>
      <point x="459" y="0" type="line"/>
      <point x="465" y="36" type="line"/>
      <point x="303" y="67" type="line"/>
      <point x="490" y="1420" type="line"/>
      <point x="636" y="1450" type="line"/>
      <point x="641" y="1486" type="line"/>
      <point x="189" y="1486" type="line"/>
      <point x="184" y="1450" type="line"/>
      <point x="332" y="1420" type="line"/>
      <point x="145" y="67" type="line"/>
    </contour>
  </outline>
</glyph>
<glyph name="J" format="1">
  <advance width="636"/>
  <unicode hex="004A"/>
  <outline>
    <contour>
      <point x="295" y="-164" type="move" name="btm"/>
    </contour>
    <contour>
      <point x="488" y="1486" type="move" name="top"/>
    </contour>
    <contour>
      <point x="-206" y="-266" type="curve"/>
      <point x="-184" y="-309" type="line"/>
      <point x="24" y="-276"/>
      <point x="273" y="-169"/>
      <point x="328" y="70" type="curve"/>
      <point x="366" y="232"/>
      <point x="439" y="760"/>
      <point x="509" y="1415" type="curve"/>
      <point x="683" y="1450" type="line"/>
      <point x="689" y="1486" type="line"/>
      <point x="208" y="1486" type="line"/>
      <point x="203" y="1450" type="line"/>
      <point x="355" y="1419" type="line"/>
      <point x="307" y="993"/>
      <point x="254" y="400"/>
      <point x="186" y="85" type="curve"/>
      <point x="152" y="-72"/>
      <point x="31" y="-210"/>
    </contour>
  </outline>
</glyph>
<glyph name="K" format="1">
  <advance width="1391"/>
  <unicode hex="004B"/>
  <outline>
    <contour>
      <point x="844" y="1486" type="move" name="top"/>
    </contour>
    <contour>
      <point x="703" y="0" type="move" name="bottom"/>
    </contour>
    <contour>
      <point x="-31" y="36" type="line"/>
      <point x="-36" y="0" type="line"/>
      <point x="442" y="0" type="line"/>
      <point x="447" y="36" type="line"/>
      <point x="285" y="67" type="line"/>
      <point x="472" y="1420" type="line"/>
      <point x="618" y="1450" type="line"/>
      <point x="623" y="1486" type="line"/>
      <point x="171" y="1486" type="line"/>
      <point x="166" y="1450" type="line"/>
      <point x="314" y="1420" type="line"/>
      <point x="127" y="67" type="line"/>
    </contour>
    <contour>
      <point x="342" y="581" type="line"/>
      <point x="327" y="475" type="line"/>
      <point x="1251" y="1426" type="line"/>
      <point x="1396" y="1450" type="line"/>
      <point x="1404" y="1486" type="line"/>
      <point x="975" y="1486" type="line"/>
      <point x="971" y="1450" type="line"/>
      <point x="1140" y="1424" type="line"/>
    </contour>
    <contour>
      <point x="1035" y="0" type="curve"/>
      <point x="1273" y="0" type="line"/>
      <point x="1278" y="36" type="line"/>
      <point x="1153" y="68" type="line"/>
      <point x="1116" y="94"/>
      <point x="1046" y="209"/>
      <point x="932" y="395" type="curve"/>
      <point x="868" y="499"/>
      <point x="720" y="724"/>
      <point x="661" y="826" type="curve"/>
      <point x="567" y="731" type="line"/>
      <point x="621" y="639"/>
      <point x="728" y="460"/>
      <point x="793" y="350" type="curve"/>
      <point x="877" y="210"/>
      <point x="986" y="4"/>
    </contour>
  </outline>
</glyph>
<glyph name="L" format="1">
  <advance width="1130"/>
  <unicode hex="004C"/>
  <outline>
    <contour>
      <point x="877" y="1110" type="move" name="car"/>
    </contour>
    <contour>
      <point x="398" y="1486" type="move" name="top"/>
    </contour>
    <contour>
      <point x="533" y="0" type="move" name="bottom"/>
    </contour>
    <contour>
      <point x="-31" y="36" type="line"/>
      <point x="-36" y="0" type="line"/>
      <point x="970" y="0" type="line"/>
      <point x="1069" y="423" type="line"/>
      <point x="1006" y="435" type="line"/>
      <point x="878" y="95" type="line"/>
      <point x="285" y="68" type="line"/>
      <point x="471" y="1417" type="line"/>
      <point x="641" y="1450" type="line"/>
      <point x="646" y="1486" type="line"/>
      <point x="171" y="1486" type="line"/>
      <point x="166" y="1450" type="line"/>
      <point x="314" y="1420" type="line"/>
      <point x="127" y="67" type="line"/>
    </contour>
  </outline>
</glyph>
<glyph name="M" format="1">
  <advance width="1947"/>
  <unicode hex="004D"/>
  <outline>
    <contour>
      <point x="1062" y="1486" type="move" name="top"/>
    </contour>
    <contour>
      <point x="869" y="0" type="move" name="bottom"/>
    </contour>
    <contour>
      <point x="1538" y="1486" type="line"/>
      <point x="1036" y="458" type="line"/>
      <point x="933" y="238" type="line"/>
      <point x="895" y="462" type="line"/>
      <point x="688" y="1486" type="line"/>
      <point x="301" y="1486" type="line"/>
      <point x="298" y="1451" type="line"/>
      <point x="466" y="1419" type="line"/>
      <point x="130" y="56" type="line"/>
      <point x="-27" y="36" type="line"/>
      <point x="-33" y="0" type="line"/>
      <point x="427" y="0" type="line"/>
      <point x="431" y="36" type="line"/>
      <point x="238" y="58" type="line"/>
      <point x="469" y="1037" type="line"/>
      <point x="554" y="1419" type="line"/>
      <point x="638" y="1014" type="line"/>
      <point x="821" y="0" type="line"/>
      <point x="905" y="0" type="line"/>
      <point x="1415" y="1040" type="line"/>
      <point x="1579" y="1405" type="line"/>
      <point x="1556" y="989" type="line"/>
      <point x="1535" y="67" type="line"/>
      <point x="1334" y="36" type="line"/>
      <point x="1328" y="0" type="line"/>
      <point x="1866" y="0" type="line"/>
      <point x="1869" y="36" type="line"/>
      <point x="1693" y="69" type="line"/>
      <point x="1707" y="1427" type="line"/>
      <point x="1877" y="1450" type="line"/>
      <point x="1882" y="1486" type="line"/>
    </contour>
  </outline>
</glyph>
<glyph name="N" format="1">
  <advance width="1411"/>
  <unicode hex="004E"/>
  <outline>
    <contour>
      <point x="893" y="1486" type="move" name="top"/>
    </contour>
    <contour>
      <point x="745" y="0" type="move" name="bottom"/>
    </contour>
    <contour>
      <point x="-31" y="36" type="line"/>
      <point x="-37" y="0" type="line"/>
      <point x="380" y="0" type="line"/>
      <point x="385" y="36" type="line"/>
      <point x="229" y="65" type="line"/>
      <point x="382" y="1416" type="line"/>
      <point x="355" y="1413" type="line"/>
      <point x="471" y="1104" type="line"/>
      <point x="1017" y="0" type="line"/>
      <point x="1145" y="0" type="line"/>
      <point x="1343" y="1421" type="line"/>
      <point x="1498" y="1450" type="line"/>
      <point x="1503" y="1486" type="line"/>
      <point x="1086" y="1486" type="line"/>
      <point x="1081" y="1450" type="line"/>
      <point x="1238" y="1421" type="line"/>
      <point x="1082" y="70" type="line"/>
      <point x="1117" y="70" type="line"/>
      <point x="1008" y="364" type="line"/>
      <point x="456" y="1486" type="line"/>
      <point x="171" y="1486" type="line"/>
      <point x="166" y="1450" type="line"/>
      <point x="313" y="1420" type="line"/>
      <point x="124" y="65" type="line"/>
    </contour>
  </outline>
</glyph>
<glyph name="O" format="1">
  <advance width="1392"/>
  <unicode hex="004F"/>
  <outline>
    <contour>
      <point x="151" y="1486" type="move" name="topleft"/>
    </contour>
    <contour>
      <point x="724" y="743" type="move" name="center"/>
    </contour>
    <contour>
      <point x="621" y="0" type="move" name="bottom"/>
    </contour>
    <contour>
      <point x="826" y="1486" type="move" name="top"/>
    </contour>
    <contour>
      <point x="1170" y="1423" type="move" name="topright"/>
    </contour>
    <contour>
      <point x="885" y="44" type="move" name="ogonek"/>
    </contour>
    <contour>
      <point x="634" y="-22" type="curve"/>
      <point x="1058" y="-22"/>
      <point x="1358" y="371"/>
      <point x="1352" y="885" type="curve"/>
      <point x="1348" y="1267"/>
      <point x="1166" y="1503"/>
      <point x="818" y="1503" type="curve"/>
      <point x="400" y="1503"/>
      <point x="91" y="1125"/>
      <point x="97" y="605" type="curve"/>
      <point x="101" y="212"/>
      <point x="292" y="-22"/>
    </contour>
    <contour>
      <point x="660" y="29" type="curve"/>
      <point x="416" y="29"/>
      <point x="265" y="240"/>
      <point x="261" y="617" type="curve"/>
      <point x="256" y="1096"/>
      <point x="484" y="1452"/>
      <point x="794" y="1452" type="curve"/>
      <point x="1043" y="1452"/>
      <point x="1184" y="1256"/>
      <point x="1188" y="870" type="curve"/>
      <point x="1192" y="417"/>
      <point x="969" y="29"/>
    </contour>
  </outline>
</glyph>
<glyph name="P" format="1">
  <advance width="1259"/>
  <unicode hex="0050"/>
  <outline>
    <contour>
      <point x="235" y="-166" type="move" name="btm"/>
    </contour>
    <contour>
      <point x="761" y="1486" type="move" name="top"/>
    </contour>
    <contour>
      <point x="-31" y="36" type="line"/>
      <point x="-36" y="0" type="line"/>
      <point x="523" y="0" type="line"/>
      <point x="529" y="36" type="line"/>
      <point x="285" y="66" type="line"/>
      <point x="477" y="1446" type="line"/>
      <point x="427" y="1422" type="line"/>
      <point x="498" y="1432"/>
      <point x="635" y="1450"/>
      <point x="700" y="1450" type="curve"/>
      <point x="934" y="1450"/>
      <point x="1046" y="1348"/>
      <point x="1046" y="1109" type="curve"/>
      <point x="1046" y="789"/>
      <point x="894" y="628"/>
      <point x="577" y="628" type="curve"/>
      <point x="515" y="628"/>
      <point x="407" y="644"/>
      <point x="344" y="658" type="curve"/>
      <point x="332" y="595" type="line"/>
      <point x="395" y="586"/>
      <point x="473" y="577"/>
      <point x="568" y="577" type="curve"/>
      <point x="916" y="577"/>
      <point x="1226" y="730"/>
      <point x="1215" y="1124" type="curve"/>
      <point x="1208" y="1382"/>
      <point x="1036" y="1502"/>
      <point x="724" y="1502" type="curve"/>
      <point x="615" y="1502"/>
      <point x="524" y="1486"/>
      <point x="406" y="1486" type="curve"/>
      <point x="171" y="1486" type="line"/>
      <point x="166" y="1450" type="line"/>
      <point x="314" y="1420" type="line"/>
      <point x="127" y="67" type="line"/>
    </contour>
  </outline>
</glyph>
<glyph name="Q" format="1">
  <advance width="1392"/>
  <unicode hex="0051"/>
  <outline>
    <contour>
      <point x="948" y="-334" type="curve"/>
      <point x="1070" y="-334"/>
      <point x="1194" y="-288"/>
      <point x="1244" y="-250" type="curve"/>
      <point x="1241" y="-162" type="line"/>
      <point x="1180" y="-190"/>
      <point x="1074" y="-212"/>
      <point x="1003" y="-212" type="curve"/>
      <point x="842" y="-212"/>
      <point x="689" y="-182"/>
      <point x="685" y="-14" type="curve"/>
      <point x="645" y="-18" type="line"/>
      <point x="579" y="-230"/>
      <point x="711" y="-334"/>
    </contour>
    <contour>
      <point x="634" y="-22" type="curve"/>
      <point x="1058" y="-22"/>
      <point x="1358" y="371"/>
      <point x="1352" y="885" type="curve"/>
      <point x="1348" y="1267"/>
      <point x="1166" y="1503"/>
      <point x="818" y="1503" type="curve"/>
      <point x="400" y="1503"/>
      <point x="91" y="1125"/>
      <point x="97" y="605" type="curve"/>
      <point x="101" y="212"/>
      <point x="292" y="-22"/>
    </contour>
    <contour>
      <point x="660" y="29" type="curve"/>
      <point x="416" y="29"/>
      <point x="265" y="240"/>
      <point x="261" y="617" type="curve"/>
      <point x="256" y="1096"/>
      <point x="484" y="1452"/>
      <point x="794" y="1452" type="curve"/>
      <point x="1043" y="1452"/>
      <point x="1184" y="1256"/>
      <point x="1188" y="870" type="curve"/>
      <point x="1192" y="417"/>
      <point x="969" y="29"/>
    </contour>
  </outline>
</glyph>
<glyph name="R" format="1">
  <advance width="1339"/>
  <unicode hex="0052"/>
  <outline>
    <contour>
      <point x="711" y="1486" type="move" name="top"/>
    </contour>
    <contour>
      <point x="730" y="0" type="move" name="bottom"/>
    </contour>
    <contour>
      <point x="-31" y="36" type="line"/>
      <point x="-36" y="0" type="line"/>
      <point x="499" y="0" type="line"/>
      <point x="504" y="36" type="line"/>
      <point x="284" y="67" type="line"/>
      <point x="475" y="1445" type="line"/>
      <point x="428" y="1422" type="line"/>
      <point x="499" y="1432"/>
      <point x="635" y="1448"/>
      <point x="701" y="1448" type="curve"/>
      <point x="934" y="1448"/>
      <point x="1035" y="1351"/>
      <point x="1043" y="1160" type="curve"/>
      <point x="1050" y="975"/>
      <point x="897" y="782"/>
      <point x="648" y="768" type="curve"/>
      <point x="607" y="766"/>
      <point x="418" y="768"/>
      <point x="363" y="770" type="curve"/>
      <point x="350" y="716" type="line"/>
      <point x="411" y="714"/>
      <point x="598" y="716"/>
      <point x="612" y="716" type="curve"/>
      <point x="709" y="719"/>
      <point x="801" y="451"/>
      <point x="933" y="138" type="curve"/>
      <point x="975" y="41"/>
      <point x="1015" y="0"/>
      <point x="1049" y="0" type="curve"/>
      <point x="1246" y="0" type="line"/>
      <point x="1252" y="36" type="line"/>
      <point x="1145" y="35"/>
      <point x="1119" y="97"/>
      <point x="1024" y="332" type="curve"/>
      <point x="979" y="445"/>
      <point x="855" y="748"/>
      <point x="705" y="733" type="curve"/>
      <point x="692" y="719" type="line"/>
      <point x="1021" y="779"/>
      <point x="1214" y="947"/>
      <point x="1207" y="1170" type="curve"/>
      <point x="1200" y="1401"/>
      <point x="1047" y="1502"/>
      <point x="698" y="1502" type="curve"/>
      <point x="605" y="1502"/>
      <point x="512" y="1486"/>
      <point x="424" y="1486" type="curve"/>
      <point x="171" y="1486" type="line"/>
      <point x="166" y="1450" type="line"/>
      <point x="314" y="1420" type="line"/>
      <point x="127" y="67" type="line"/>
    </contour>
  </outline>
</glyph>
<glyph name="S" format="1">
  <advance width="1026"/>
  <unicode hex="0053"/>
  <outline>
    <contour>
      <point x="637" y="1486" type="move" name="top"/>
    </contour>
    <contour>
      <point x="431" y="0" type="move" name="bottom"/>
    </contour>
    <contour>
      <point x="404" y="-22" type="curve"/>
      <point x="703" y="-22"/>
      <point x="936" y="139"/>
      <point x="929" y="408" type="curve"/>
      <point x="925" y="618"/>
      <point x="752" y="717"/>
      <point x="591" y="812" type="curve"/>
      <point x="456" y="893"/>
      <point x="302" y="974"/>
      <point x="302" y="1161" type="curve"/>
      <point x="303" y="1346"/>
      <point x="467" y="1450"/>
      <point x="637" y="1450" type="curve"/>
      <point x="771" y="1450"/>
      <point x="840" y="1409"/>
      <point x="887" y="1375" type="curve"/>
      <point x="897" y="1168" type="line"/>
      <point x="956" y="1168" type="line"/>
      <point x="1000" y="1421" type="line"/>
      <point x="942" y="1452"/>
      <point x="795" y="1502"/>
      <point x="643" y="1502" type="curve"/>
      <point x="354" y="1502"/>
      <point x="155" y="1353"/>
      <point x="160" y="1100" type="curve"/>
      <point x="164" y="891"/>
      <point x="365" y="784"/>
      <point x="518" y="690" type="curve"/>
      <point x="647" y="612"/>
      <point x="784" y="526"/>
      <point x="779" y="346" type="curve"/>
      <point x="772" y="113"/>
      <point x="567" y="30"/>
      <point x="410" y="30" type="curve"/>
      <point x="283" y="30"/>
      <point x="191" y="75"/>
      <point x="128" y="113" type="curve"/>
      <point x="118" y="336" type="line"/>
      <point x="52" y="336" type="line"/>
      <point x="6" y="63" type="line"/>
      <point x="58" y="27"/>
      <point x="244" y="-22"/>
    </contour>
  </outline>
</glyph>
<glyph name="T" format="1">
  <advance width="1363"/>
  <unicode hex="0054"/>
  <outline>
    <contour>
      <point x="789" y="1486" type="move" name="top"/>
    </contour>
    <contour>
      <point x="597" y="0" type="move" name="bottom"/>
    </contour>
    <contour>
      <point x="1368" y="1486" type="line"/>
      <point x="199" y="1486" type="line"/>
      <point x="122" y="1079" type="line"/>
      <point x="183" y="1081" type="line"/>
      <point x="291" y="1404" type="line"/>
      <point x="709" y="1420" type="line"/>
      <point x="522" y="66" type="line"/>
      <point x="301" y="36" type="line"/>
      <point x="296" y="0" type="line"/>
      <point x="898" y="0" type="line"/>
      <point x="904" y="36" type="line"/>
      <point x="680" y="66" type="line"/>
      <point x="867" y="1420" type="line"/>
      <point x="1254" y="1404" type="line"/>
      <point x="1278" y="1077" type="line"/>
      <point x="1337" y="1079" type="line"/>
    </contour>
  </outline>
</glyph>
<glyph name="U" format="1">
  <advance width="1445"/>
  <unicode hex="0055"/>
  <outline>
    <contour>
      <point x="844" y="1486" type="move" name="top"/>
    </contour>
    <contour>
      <point x="848" y="20" type="move" name="ogonek"/>
    </contour>
    <contour>
      <point x="1326" y="1486" type="move" name="topright"/>
    </contour>
    <contour>
      <point x="662" y="0" type="move" name="bottom"/>
    </contour>
    <contour>
      <point x="1261" y="612" type="curve"/>
      <point x="1360" y="1421" type="line"/>
      <point x="1509" y="1450" type="line"/>
      <point x="1514" y="1486" type="line"/>
      <point x="1114" y="1486" type="line"/>
      <point x="1109" y="1450" type="line"/>
      <point x="1267" y="1420" type="line"/>
      <point x="1183" y="612" type="line" smooth="yes"/>
      <point x="1142" y="214"/>
      <point x="941" y="52"/>
      <point x="683" y="52" type="curve"/>
      <point x="424" y="52"/>
      <point x="329" y="211"/>
      <point x="327" y="441" type="curve"/>
      <point x="326" y="489"/>
      <point x="330" y="539"/>
      <point x="337" y="592" type="curve"/>
      <point x="449" y="1420" type="line"/>
      <point x="607" y="1450" type="line"/>
      <point x="612" y="1486" type="line"/>
      <point x="151" y="1486" type="line"/>
      <point x="146" y="1450" type="line"/>
      <point x="289" y="1421" type="line"/>
      <point x="174" y="578" type="line" smooth="yes"/>
      <point x="168" y="535"/>
      <point x="167" y="493"/>
      <point x="167" y="452" type="curve"/>
      <point x="170" y="164"/>
      <point x="323" y="-20"/>
      <point x="662" y="-20" type="curve"/>
      <point x="997" y="-20"/>
      <point x="1206" y="170"/>
    </contour>
  </outline>
</glyph>
<glyph name="V" format="1">
  <advance width="1284"/>
  <unicode hex="0056"/>
  <outline>
    <contour>
      <point x="825" y="1660" type="move" name="top"/>
    </contour>
    <contour>
      <point x="191" y="1425" type="line"/>
      <point x="485" y="-20" type="line"/>
      <point x="609" y="-12" type="line"/>
      <point x="1317" y="1429" type="line"/>
      <point x="1441" y="1450" type="line"/>
      <point x="1446" y="1486" type="line"/>
      <point x="1019" y="1486" type="line"/>
      <point x="1015" y="1450" type="line"/>
      <point x="1209" y="1426" type="line"/>
      <point x="670" y="283" type="line"/>
      <point x="561" y="53" type="line"/>
      <point x="601" y="44" type="line"/>
      <point x="578" y="227" type="line"/>
      <point x="350" y="1420" type="line"/>
      <point x="558" y="1450" type="line"/>
      <point x="566" y="1486" type="line"/>
      <point x="77" y="1486" type="line"/>
      <point x="73" y="1450" type="line"/>
    </contour>
  </outline>
</glyph>
<glyph name="W" format="1">
  <advance width="1917"/>
  <unicode hex="0057"/>
  <outline>
    <contour>
      <point x="1098" y="1486" type="move" name="top"/>
    </contour>
    <contour>
      <point x="895" y="0" type="move" name="bottom"/>
    </contour>
    <contour>
      <point x="959" y="1425" type="line"/>
      <point x="1176" y="-20" type="line"/>
      <point x="1300" y="-11" type="line"/>
      <point x="1961" y="1429" type="line"/>
      <point x="2085" y="1450" type="line"/>
      <point x="2090" y="1486" type="line"/>
      <point x="1651" y="1486" type="line"/>
      <point x="1647" y="1450" type="line"/>
      <point x="1853" y="1426" type="line"/>
      <point x="1348" y="270" type="line"/>
      <point x="1253" y="53" type="line"/>
      <point x="1288" y="44" type="line"/>
      <point x="1255" y="333" type="line"/>
      <point x="1118" y="1420" type="line"/>
      <point x="1292" y="1450" type="line"/>
      <point x="1300" y="1486" type="line"/>
      <point x="811" y="1486" type="line"/>
      <point x="807" y="1450" type="line"/>
    </contour>
    <contour>
      <point x="186" y="1425" type="line"/>
      <point x="433" y="-20" type="line"/>
      <point x="558" y="-11" type="line"/>
      <point x="1124" y="1247" type="line"/>
      <point x="1025" y="1245" type="line"/>
      <point x="590" y="247" type="line"/>
      <point x="505" y="53" type="line"/>
      <point x="550" y="44" type="line"/>
      <point x="512" y="333" type="line"/>
      <point x="346" y="1420" type="line"/>
      <point x="547" y="1450" type="line"/>
      <point x="550" y="1486" type="line"/>
      <point x="72" y="1486" type="line"/>
      <point x="68" y="1450" type="line"/>
    </contour>
  </outline>
</glyph>
<glyph name="X" format="1">
  <advance width="1324"/>
  <unicode hex="0058"/>
  <outline>
    <contour>
      <point x="809" y="1660" type="move" name="top"/>
    </contour>
    <contour>
      <point x="587" y="0" type="move" name="bottom"/>
    </contour>
    <contour>
      <point x="-61" y="36" type="line"/>
      <point x="-64" y="0" type="line"/>
      <point x="377" y="0" type="line"/>
      <point x="382" y="36" type="line"/>
      <point x="207" y="64" type="line"/>
      <point x="687" y="717" type="line"/>
      <point x="716" y="728" type="line"/>
      <point x="1277" y="1425" type="line"/>
      <point x="1431" y="1450" type="line"/>
      <point x="1434" y="1486" type="line"/>
      <point x="992" y="1486" type="line"/>
      <point x="987" y="1450" type="line"/>
      <point x="1158" y="1422" type="line"/>
      <point x="704" y="818" type="line"/>
      <point x="670" y="808" type="line"/>
      <point x="85" y="61" type="line"/>
    </contour>
    <contour>
      <point x="742" y="36" type="line"/>
      <point x="737" y="0" type="line"/>
      <point x="1251" y="0" type="line"/>
      <point x="1256" y="36" type="line"/>
      <point x="1102" y="64" type="line"/>
      <point x="749" y="768" type="line"/>
      <point x="730" y="809" type="line"/>
      <point x="444" y="1425" type="line"/>
      <point x="625" y="1450" type="line"/>
      <point x="630" y="1486" type="line"/>
      <point x="128" y="1486" type="line"/>
      <point x="123" y="1450" type="line"/>
      <point x="270" y="1422" type="line"/>
      <point x="623" y="710" type="line"/>
      <point x="632" y="691" type="line"/>
      <point x="919" y="61" type="line"/>
    </contour>
  </outline>
</glyph>
<glyph name="Y" format="1">
  <advance width="1187"/>
  <unicode hex="0059"/>
  <outline>
    <contour>
      <point x="521" y="-166" type="move" name="btm"/>
    </contour>
    <contour>
      <point x="132" y="1486" type="move" name="topleft"/>
    </contour>
    <contour>
      <point x="718" y="1486" type="move" name="top"/>
    </contour>
    <contour>
      <point x="548" y="0" type="move" name="bottom"/>
    </contour>
    <contour>
      <point x="247" y="36" type="line"/>
      <point x="242" y="0" type="line"/>
      <point x="844" y="0" type="line"/>
      <point x="849" y="36" type="line"/>
      <point x="624" y="68" type="line"/>
      <point x="704" y="647" type="line"/>
      <point x="634" y="507" type="line"/>
      <point x="1227" y="1433" type="line"/>
      <point x="1349" y="1450" type="line"/>
      <point x="1353" y="1486" type="line"/>
      <point x="956" y="1486" type="line"/>
      <point x="951" y="1450" type="line"/>
      <point x="1115" y="1431" type="line"/>
      <point x="727" y="803" type="line"/>
      <point x="613" y="612" type="line"/>
      <point x="666" y="600" type="line"/>
      <point x="599" y="802" type="line"/>
      <point x="351" y="1431" type="line"/>
      <point x="534" y="1450" type="line"/>
      <point x="539" y="1486" type="line"/>
      <point x="69" y="1486" type="line"/>
      <point x="63" y="1450" type="line"/>
      <point x="181" y="1431" type="line"/>
      <point x="569" y="502" type="line"/>
      <point x="544" y="637" type="line"/>
      <point x="465" y="66" type="line"/>
    </contour>
  </outline>
</glyph>
<glyph name="Z" format="1">
  <advance width="1258"/>
  <unicode hex="005A"/>
  <outline>
    <contour>
      <point x="742" y="1486" type="move" name="top"/>
    </contour>
    <contour>
      <point x="572" y="0" type="move" name="bottom"/>
    </contour>
    <contour>
      <point x="1255" y="1486" type="line"/>
      <point x="266" y="1486" type="line"/>
      <point x="209" y="1152" type="line"/>
      <point x="263" y="1142" type="line"/>
      <point x="377" y="1406" type="line"/>
      <point x="1090" y="1420" type="line"/>
      <point x="883" y="1189" type="line"/>
      <point x="-27" y="33" type="line"/>
      <point x="-9" y="0" type="line"/>
      <point x="1061" y="0" type="line"/>
      <point x="1156" y="352" type="line"/>
      <point x="1092" y="371" type="line"/>
      <point x="971" y="108" type="line"/>
      <point x="150" y="66" type="line"/>
      <point x="336" y="269" type="line"/>
      <point x="1270" y="1455" type="line"/>
    </contour>
  </outline>
</glyph>
<glyph name="AE" format="1">
  <advance width="1989"/>
  <unicode hex="00C6"/>
  <outline>
    <contour>
      <point x="1223" y="1486" type="move" name="top"/>
    </contour>
    <contour>
      <point x="705" y="36" type="line"/>
      <point x="700" y="0" type="line"/>
      <point x="1810" y="0" type="line"/>
      <point x="1896" y="308" type="line"/>
      <point x="1832" y="325" type="line"/>
      <point x="1718" y="95" type="line"/>
      <point x="1022" y="69" type="line"/>
      <point x="1115" y="733" type="line"/>
      <point x="1622" y="718" type="line"/>
      <point x="1636" y="809" type="line"/>
      <point x="1124" y="799" type="line"/>
      <point x="1207" y="1420" type="line"/>
      <point x="1777" y="1400" type="line"/>
      <point x="1822" y="1184" type="line"/>
      <point x="1873" y="1184" type="line"/>
      <point x="1877" y="1486" type="line"/>
      <point x="581" y="1486" type="line"/>
      <point x="577" y="1450" type="line"/>
      <point x="815" y="1421" type="line"/>
      <point x="26" y="58" type="line"/>
      <point x="-115" y="36" type="line"/>
      <point x="-120" y="0" type="line"/>
      <point x="359" y="0" type="line"/>
      <point x="364" y="36" type="line"/>
      <point x="188" y="59" type="line"/>
      <point x="399" y="482" type="line"/>
      <point x="922" y="482" type="line"/>
      <point x="863" y="67" type="line"/>
    </contour>
    <contour>
      <point x="430" y="548" type="line"/>
      <point x="900" y="1421" type="line"/>
      <point x="1050" y="1421" type="line"/>
      <point x="930" y="548" type="line"/>
    </contour>
  </outline>
</glyph>
<glyph name="Eth" format="1">
  <advance width="1417"/>
  <unicode hex="00D0"/>
  <outline>
    <contour>
      <point x="88" y="802" type="line"/>
      <point x="79" y="732" type="line"/>
      <point x="943" y="732" type="line"/>
      <point x="952" y="802" type="line"/>
    </contour>
    <contour>
      <point x="-18" y="36" type="line"/>
      <point x="-23" y="0" type="line"/>
      <point x="224" y="0" type="line" smooth="yes"/>
      <point x="406" y="0"/>
      <point x="455" y="-16"/>
      <point x="613" y="-16" type="curve"/>
      <point x="1101" y="-16"/>
      <point x="1387" y="403"/>
      <point x="1382" y="899" type="curve"/>
      <point x="1373" y="1262"/>
      <point x="1196" y="1502"/>
      <point x="761" y="1502" type="curve"/>
      <point x="663" y="1502"/>
      <point x="563" y="1488"/>
      <point x="465" y="1486" type="curve"/>
      <point x="184" y="1486" type="line"/>
      <point x="179" y="1450" type="line"/>
      <point x="328" y="1420" type="line"/>
      <point x="141" y="67" type="line"/>
    </contour>
    <contour>
      <point x="609" y="37" type="curve"/>
      <point x="472" y="37"/>
      <point x="351" y="62"/>
      <point x="260" y="87" type="curve"/>
      <point x="292" y="28" type="line"/>
      <point x="492" y="1456" type="line"/>
      <point x="448" y="1411" type="line"/>
      <point x="510" y="1427"/>
      <point x="635" y="1449"/>
      <point x="727" y="1449" type="curve"/>
      <point x="1073" y="1449"/>
      <point x="1206" y="1254"/>
      <point x="1217" y="883" type="curve"/>
      <point x="1222" y="455"/>
      <point x="992" y="37"/>
    </contour>
  </outline>
</glyph>
<glyph name="Oslash" format="1">
  <advance width="1392"/>
  <unicode hex="00D8"/>
  <outline>
    <contour>
      <point x="819" y="1484" type="move" name="top"/>
    </contour>
    <contour>
      <point x="127" y="-127" type="line"/>
      <point x="150" y="-262" type="line"/>
      <point x="1312" y="1612" type="line"/>
      <point x="1288" y="1747" type="line"/>
    </contour>
    <contour>
      <point x="634" y="-22" type="curve"/>
      <point x="1058" y="-22"/>
      <point x="1358" y="371"/>
      <point x="1352" y="885" type="curve"/>
      <point x="1348" y="1267"/>
      <point x="1166" y="1503"/>
      <point x="818" y="1503" type="curve"/>
      <point x="400" y="1503"/>
      <point x="91" y="1125"/>
      <point x="97" y="605" type="curve"/>
      <point x="101" y="212"/>
      <point x="292" y="-22"/>
    </contour>
    <contour>
      <point x="660" y="29" type="curve"/>
      <point x="416" y="29"/>
      <point x="265" y="240"/>
      <point x="261" y="617" type="curve"/>
      <point x="256" y="1096"/>
      <point x="484" y="1452"/>
      <point x="794" y="1452" type="curve"/>
      <point x="1043" y="1452"/>
      <point x="1184" y="1256"/>
      <point x="1188" y="870" type="curve"/>
      <point x="1192" y="417"/>
      <point x="969" y="29"/>
    </contour>
  </outline>
</glyph>
<glyph name="Thorn" format="1">
  <advance width="1192"/>
  <unicode hex="00DE"/>
  <outline>
    <contour>
      <point x="-31" y="36" type="line"/>
      <point x="-36" y="0" type="line"/>
      <point x="439" y="0" type="line"/>
      <point x="444" y="36" type="line"/>
      <point x="285" y="67" type="line"/>
      <point x="323" y="342" type="line"/>
      <point x="377" y="336"/>
      <point x="443" y="331"/>
      <point x="519" y="331" type="curve"/>
      <point x="853" y="331"/>
      <point x="1132" y="502"/>
      <point x="1129" y="798" type="curve"/>
      <point x="1126" y="1044"/>
      <point x="971" y="1153"/>
      <point x="645" y="1153" type="curve"/>
      <point x="558" y="1153"/>
      <point x="515" y="1150"/>
      <point x="434" y="1140" type="curve"/>
      <point x="472" y="1420" type="line"/>
      <point x="618" y="1450" type="line"/>
      <point x="623" y="1486" type="line"/>
      <point x="171" y="1486" type="line"/>
      <point x="166" y="1450" type="line"/>
      <point x="314" y="1420" type="line"/>
      <point x="127" y="67" type="line"/>
    </contour>
    <contour>
      <point x="331" y="402" type="curve"/>
      <point x="426" y="1089" type="line"/>
      <point x="485" y="1097"/>
      <point x="552" y="1103"/>
      <point x="616" y="1103" type="curve"/>
      <point x="858" y="1103"/>
      <point x="954" y="996"/>
      <point x="956" y="829" type="curve"/>
      <point x="959" y="561"/>
      <point x="818" y="385"/>
      <point x="524" y="385" type="curve"/>
      <point x="474" y="385"/>
      <point x="390" y="392"/>
    </contour>
  </outline>
</glyph>
<glyph name="Lslash" format="1">
  <advance width="1185"/>
  <unicode hex="0141"/>
  <outline>
    <contour>
      <point x="41" y="699" type="line"/>
      <point x="68" y="637" type="line"/>
      <point x="911" y="968" type="line"/>
      <point x="885" y="1033" type="line"/>
    </contour>
    <contour>
      <point x="24" y="36" type="line"/>
      <point x="19" y="0" type="line"/>
      <point x="1026" y="0" type="line"/>
      <point x="1125" y="423" type="line"/>
      <point x="1062" y="435" type="line"/>
      <point x="933" y="95" type="line"/>
      <point x="341" y="68" type="line"/>
      <point x="526" y="1417" type="line"/>
      <point x="696" y="1450" type="line"/>
      <point x="701" y="1486" type="line"/>
      <point x="226" y="1486" type="line"/>
      <point x="221" y="1450" type="line"/>
      <point x="370" y="1420" type="line"/>
      <point x="183" y="67" type="line"/>
    </contour>
  </outline>
</glyph>
<glyph name="Eng" format="1">
  <advance width="1402"/>
  <unicode hex="014A"/>
  <outline>
    <contour>
      <point x="596" y="-395" type="curve"/>
      <point x="620" y="-438" type="line"/>
      <point x="832" y="-405"/>
      <point x="1107" y="-270"/>
      <point x="1149" y="33" type="curve"/>
      <point x="1343" y="1421" type="line"/>
      <point x="1498" y="1450" type="line"/>
      <point x="1503" y="1486" type="line"/>
      <point x="1086" y="1486" type="line"/>
      <point x="1082" y="1450" type="line"/>
      <point x="1238" y="1421" type="line"/>
      <point x="1090" y="141" type="line"/>
      <point x="1005" y="366" type="line"/>
      <point x="453" y="1486" type="line"/>
      <point x="171" y="1486" type="line"/>
      <point x="166" y="1450" type="line"/>
      <point x="313" y="1420" type="line"/>
      <point x="124" y="65" type="line"/>
      <point x="-30" y="36" type="line"/>
      <point x="-37" y="0" type="line"/>
      <point x="380" y="0" type="line"/>
      <point x="385" y="36" type="line"/>
      <point x="229" y="65" type="line"/>
      <point x="376" y="1360" type="line"/>
      <point x="471" y="1112" type="line"/>
      <point x="1017" y="0" type="line"/>
      <point x="986" y="-178"/>
      <point x="837" y="-338"/>
    </contour>
  </outline>
</glyph>
<glyph name="OE" format="1">
  <advance width="2212"/>
  <unicode hex="0152"/>
  <outline>
    <contour>
      <point x="636" y="-22" type="curve"/>
      <point x="847" y="-22"/>
      <point x="1031" y="84"/>
      <point x="1157" y="257" type="curve"/>
      <point x="1122" y="0" type="line"/>
      <point x="2034" y="0" type="line"/>
      <point x="2120" y="308" type="line"/>
      <point x="2057" y="325" type="line"/>
      <point x="1942" y="95" type="line"/>
      <point x="1290" y="68" type="line"/>
      <point x="1382" y="733" type="line"/>
      <point x="1846" y="719" type="line"/>
      <point x="1859" y="808" type="line"/>
      <point x="1391" y="798" type="line"/>
      <point x="1476" y="1420" type="line"/>
      <point x="2000" y="1400" type="line"/>
      <point x="2046" y="1184" type="line"/>
      <point x="2097" y="1184" type="line"/>
      <point x="2102" y="1486" type="line"/>
      <point x="1327" y="1486" type="line"/>
      <point x="1285" y="1180" type="line"/>
      <point x="1209" y="1383"/>
      <point x="1055" y="1503"/>
      <point x="820" y="1503" type="curve"/>
      <point x="402" y="1503"/>
      <point x="86" y="1125"/>
      <point x="99" y="605" type="curve"/>
      <point x="109" y="212"/>
      <point x="294" y="-22"/>
    </contour>
    <contour>
      <point x="662" y="29" type="curve"/>
      <point x="418" y="29"/>
      <point x="272" y="240"/>
      <point x="264" y="617" type="curve"/>
      <point x="253" y="1096"/>
      <point x="486" y="1452"/>
      <point x="797" y="1452" type="curve"/>
      <point x="1045" y="1452"/>
      <point x="1178" y="1259"/>
      <point x="1189" y="870" type="curve"/>
      <point x="1202" y="417"/>
      <point x="971" y="29"/>
    </contour>
  </outline>
</glyph>
<glyph name="Ohorn" format="1">
  <advance width="1469"/>
  <unicode hex="01A0"/>
  <outline>
    <contour>
      <point x="821" y="1486" type="move" name="top"/>
    </contour>
    <contour>
      <point x="637" y="0" type="move" name="bottom"/>
    </contour>
    <contour>
      <point x="1093" y="1407" type="curve"/>
      <point x="1137" y="1333" type="line"/>
      <point x="1459" y="1347"/>
      <point x="1543" y="1453"/>
      <point x="1541" y="1636" type="curve"/>
      <point x="1541" y="1687"/>
      <point x="1529" y="1714"/>
      <point x="1522" y="1730" type="curve"/>
      <point x="1380" y="1730" type="line"/>
      <point x="1381" y="1722"/>
      <point x="1382" y="1710"/>
      <point x="1382" y="1697" type="curve"/>
      <point x="1384" y="1514"/>
      <point x="1354" y="1407"/>
    </contour>
    <contour>
      <point x="634" y="-22" type="curve"/>
      <point x="1058" y="-22"/>
      <point x="1358" y="371"/>
      <point x="1352" y="885" type="curve"/>
      <point x="1348" y="1267"/>
      <point x="1166" y="1503"/>
      <point x="818" y="1503" type="curve"/>
      <point x="400" y="1503"/>
      <point x="91" y="1125"/>
      <point x="97" y="605" type="curve"/>
      <point x="101" y="212"/>
      <point x="292" y="-22"/>
    </contour>
    <contour>
      <point x="660" y="29" type="curve"/>
      <point x="416" y="29"/>
      <point x="265" y="240"/>
      <point x="261" y="617" type="curve"/>
      <point x="256" y="1096"/>
      <point x="484" y="1452"/>
      <point x="794" y="1452" type="curve"/>
      <point x="1043" y="1452"/>
      <point x="1184" y="1256"/>
      <point x="1188" y="870" type="curve"/>
      <point x="1192" y="417"/>
      <point x="969" y="29"/>
    </contour>
  </outline>
</glyph>
<glyph name="Uhorn" format="1">
  <advance width="1531"/>
  <unicode hex="01AF"/>
  <outline>
    <contour>
      <point x="849" y="1486" type="move" name="top"/>
    </contour>
    <contour>
      <point x="658" y="0" type="move" name="bottom"/>
    </contour>
    <contour>
      <point x="1261" y="612" type="curve"/>
      <point x="1360" y="1421" type="line"/>
      <point x="1509" y="1450" type="line"/>
      <point x="1514" y="1486" type="line"/>
      <point x="1114" y="1486" type="line"/>
      <point x="1109" y="1450" type="line"/>
      <point x="1267" y="1420" type="line"/>
      <point x="1183" y="612" type="line" smooth="yes"/>
      <point x="1142" y="214"/>
      <point x="941" y="52"/>
      <point x="683" y="52" type="curve"/>
      <point x="424" y="52"/>
      <point x="329" y="211"/>
      <point x="327" y="441" type="curve"/>
      <point x="326" y="489"/>
      <point x="330" y="539"/>
      <point x="337" y="592" type="curve"/>
      <point x="449" y="1420" type="line"/>
      <point x="607" y="1450" type="line"/>
      <point x="612" y="1486" type="line"/>
      <point x="151" y="1486" type="line"/>
      <point x="146" y="1450" type="line"/>
      <point x="289" y="1421" type="line"/>
      <point x="174" y="578" type="line" smooth="yes"/>
      <point x="168" y="535"/>
      <point x="167" y="493"/>
      <point x="167" y="452" type="curve"/>
      <point x="170" y="164"/>
      <point x="323" y="-20"/>
      <point x="662" y="-20" type="curve"/>
      <point x="997" y="-20"/>
      <point x="1206" y="170"/>
    </contour>
    <contour>
      <point x="1276" y="1473" type="curve"/>
      <point x="1336" y="1395" type="line"/>
      <point x="1601" y="1409"/>
      <point x="1699" y="1529"/>
      <point x="1698" y="1654" type="curve"/>
      <point x="1697" y="1690"/>
      <point x="1687" y="1727"/>
      <point x="1691" y="1743" type="curve"/>
      <point x="1533" y="1748" type="line"/>
      <point x="1523" y="1739"/>
      <point x="1511" y="1725"/>
      <point x="1511" y="1698" type="curve"/>
      <point x="1512" y="1591"/>
      <point x="1481" y="1474"/>
    </contour>
  </outline>
</glyph>
<glyph name="Ezh" format="1">
  <advance width="1257"/>
  <outline>
    <contour>
      <point x="756" y="1486" type="move" name="top"/>
    </contour>
    <contour>
      <point x="496" y="-16" type="curve"/>
      <point x="873" y="-16"/>
      <point x="1149" y="150"/>
      <point x="1146" y="462" type="curve"/>
      <point x="1144" y="625"/>
      <point x="1045" y="835"/>
      <point x="783" y="835" type="curve"/>
      <point x="774" y="809" type="line"/>
      <point x="1283" y="1450" type="line"/>
      <point x="1256" y="1486" type="line"/>
      <point x="270" y="1486" type="line"/>
      <point x="212" y="1150" type="line"/>
      <point x="266" y="1141" type="line"/>
      <point x="380" y="1406" type="line"/>
      <point x="1096" y="1424" type="line"/>
      <point x="892" y="1191" type="line"/>
      <point x="592" y="811" type="line"/>
      <point x="622" y="778" type="line"/>
      <point x="642" y="791"/>
      <point x="688" y="791"/>
      <point x="719" y="791" type="curve"/>
      <point x="935" y="789"/>
      <point x="980" y="610"/>
      <point x="982" y="458" type="curve"/>
      <point x="985" y="194"/>
      <point x="817" y="37"/>
      <point x="499" y="36" type="curve"/>
      <point x="356" y="37"/>
      <point x="284" y="73"/>
      <point x="234" y="96" type="curve"/>
      <point x="225" y="388" type="line"/>
      <point x="140" y="388" type="line"/>
      <point x="79" y="51" type="line"/>
      <point x="131" y="52"/>
      <point x="302" y="-16"/>
    </contour>
  </outline>
</glyph>
<glyph name="Germandbls" format="1">
  <advance width="1447"/>
  <outline>
    <contour>
      <point x="881" y="-21" type="curve"/>
      <point x="1164" y="-21"/>
      <point x="1380" y="182"/>
      <point x="1377" y="443" type="curve"/>
      <point x="1374" y="708"/>
      <point x="1168" y="841"/>
      <point x="928" y="898" type="curve"/>
      <point x="1284" y="1351" type="line"/>
      <point x="1293" y="1377" type="line"/>
      <point x="1208" y="1437"/>
      <point x="1096" y="1493"/>
      <point x="859" y="1493" type="curve"/>
      <point x="500" y="1493"/>
      <point x="282" y="1224"/>
      <point x="236" y="893" type="curve"/>
      <point x="122" y="68" type="line"/>
      <point x="-36" y="36" type="line"/>
      <point x="-41" y="0" type="line"/>
      <point x="272" y="0" type="line"/>
      <point x="414" y="1029" type="line" smooth="yes"/>
      <point x="456" y="1338"/>
      <point x="570" y="1403"/>
      <point x="815" y="1401" type="curve"/>
      <point x="1008" y="1398"/>
      <point x="1119" y="1313"/>
      <point x="1144" y="1288" type="curve"/>
      <point x="788" y="840" type="line"/>
      <point x="784" y="813" type="line"/>
      <point x="990" y="791"/>
      <point x="1203" y="620"/>
      <point x="1206" y="398" type="curve"/>
      <point x="1207" y="233"/>
      <point x="1116" y="32"/>
      <point x="899" y="32" type="curve"/>
      <point x="789" y="32"/>
      <point x="690" y="81"/>
      <point x="660" y="118" type="curve"/>
      <point x="640" y="309" type="line"/>
      <point x="541" y="309" type="line"/>
      <point x="500" y="61" type="line"/>
      <point x="556" y="55"/>
      <point x="676" y="-21"/>
    </contour>
  </outline>
</glyph>
<glyph name="Gstroke" format="1">
  <advance width="1463"/>
  <outline>
    <contour>
      <point x="842" y="443" type="line"/>
      <point x="833" y="373" type="line"/>
      <point x="1428" y="373" type="line"/>
      <point x="1437" y="443" type="line"/>
    </contour>
    <contour>
      <point x="706" y="-16" type="curve"/>
      <point x="832" y="-16"/>
      <point x="952" y="27"/>
      <point x="1035" y="53" type="curve"/>
      <point x="1115" y="78"/>
      <point x="1154" y="88"/>
      <point x="1194" y="92" type="curve"/>
      <point x="1283" y="707" type="line"/>
      <point x="858" y="707" type="line"/>
      <point x="851" y="643" type="line"/>
      <point x="1125" y="629" type="line"/>
      <point x="1061" y="161" type="line"/>
      <point x="981" y="96"/>
      <point x="836" y="37"/>
      <point x="713" y="37" type="curve"/>
      <point x="402" y="37"/>
      <point x="273" y="319"/>
      <point x="262" y="634" type="curve"/>
      <point x="251" y="1006"/>
      <point x="433" y="1449"/>
      <point x="867" y="1449" type="curve"/>
      <point x="1064" y="1449"/>
      <point x="1139" y="1404"/>
      <point x="1199" y="1368" type="curve"/>
      <point x="1205" y="1149" type="line"/>
      <point x="1268" y="1149" type="line"/>
      <point x="1324" y="1442" type="line"/>
      <point x="1314" y="1444"/>
      <point x="1303" y="1446"/>
      <point x="1289" y="1448" type="curve"/>
      <point x="1213" y="1465"/>
      <point x="1082" y="1502"/>
      <point x="887" y="1502" type="curve"/>
      <point x="447" y="1502"/>
      <point x="79" y="1154"/>
      <point x="98" y="614" type="curve"/>
      <point x="108" y="309"/>
      <point x="242" y="-16"/>
    </contour>
  </outline>
</glyph>
<glyph name="Schwa" format="1">
  <advance width="1372"/>
  <outline>
    <contour>
      <point x="613" y="-21" type="curve"/>
      <point x="1028" y="-21"/>
      <point x="1338" y="348"/>
      <point x="1332" y="884" type="curve"/>
      <point x="1328" y="1263"/>
      <point x="1143" y="1504"/>
      <point x="809" y="1504" type="curve"/>
      <point x="513" y="1504"/>
      <point x="391" y="1432"/>
      <point x="272" y="1426" type="curve"/>
      <point x="225" y="1144" type="line"/>
      <point x="313" y="1144" type="line"/>
      <point x="386" y="1354" type="line"/>
      <point x="446" y="1398"/>
      <point x="578" y="1452"/>
      <point x="775" y="1452" type="curve"/>
      <point x="1014" y="1452"/>
      <point x="1163" y="1258"/>
      <point x="1166" y="893" type="curve"/>
      <point x="1167" y="845"/>
      <point x="1165" y="799"/>
      <point x="1161" y="754" type="curve"/>
      <point x="159" y="753" type="line"/>
      <point x="135" y="697"/>
      <point x="120" y="584"/>
      <point x="121" y="470" type="curve"/>
      <point x="124" y="158"/>
      <point x="329" y="-21"/>
    </contour>
    <contour>
      <point x="623" y="29" type="curve"/>
      <point x="397" y="29"/>
      <point x="282" y="254"/>
      <point x="280" y="445" type="curve"/>
      <point x="279" y="524"/>
      <point x="293" y="618"/>
      <point x="310" y="687" type="curve"/>
      <point x="1159" y="688" type="line"/>
      <point x="1100" y="294"/>
      <point x="911" y="29"/>
    </contour>
  </outline>
</glyph>
